<?xml version="1.0" standalone="no"?>
<!DOCTYPE svg PUBLIC "-//W3C//DTD SVG 20010904//EN"
 "http://www.w3.org/TR/2001/REC-SVG-20010904/DTD/svg10.dtd">
<svg version="1.0" xmlns="http://www.w3.org/2000/svg"
 width="768.000000pt" height="1280.000000pt" viewBox="0 0 768.000000 1280.000000"
 preserveAspectRatio="xMidYMid meet">
<g transform="translate(0.000000,1280.000000) scale(0.100000,-0.100000)"
fill="#000000" stroke="none">
<path d="M5148 11372 c-106 -165 -187 -355 -214 -502 -14 -78 -15 -105 -6
-167 22 -138 103 -305 226 -461 25 -32 46 -64 46 -70 0 -60 149 137 238 314
87 174 102 292 57 449 -30 101 -77 207 -127 286 -50 77 -158 209 -171 209 -7
0 -29 -26 -49 -58z"/>
<path d="M5950 10715 c-25 -26 -103 -85 -174 -132 -71 -47 -152 -106 -179
-132 -189 -176 -290 -434 -304 -773 -4 -81 -2 -138 3 -138 5 0 29 25 53 56 59
76 168 160 282 218 181 93 258 161 322 284 61 117 70 170 63 387 -3 105 -9
209 -13 233 l-8 43 -45 -46z"/>
<path d="M4467 10697 c-13 -53 -29 -319 -23 -388 12 -149 70 -280 164 -373 70
-69 93 -85 207 -143 144 -73 235 -145 328 -261 37 -45 42 -29 33 112 -13 235
-61 420 -147 573 -62 109 -205 252 -324 324 -49 29 -122 81 -162 116 -66 57
-71 60 -76 40z"/>
<path d="M5917 9894 c-64 -62 -97 -84 -191 -129 -186 -89 -271 -166 -332 -299
-33 -72 -79 -256 -93 -371 -13 -104 -15 -295 -3 -295 4 0 37 24 72 54 69 58
174 125 355 225 143 79 213 145 260 242 42 88 60 206 51 338 -10 141 -27 295
-35 303 -3 4 -41 -27 -84 -68z"/>
<path d="M4476 9898 c-42 -291 -32 -497 29 -618 53 -104 131 -169 330 -275
113 -60 248 -148 322 -211 l41 -35 8 57 c12 103 -21 342 -72 514 -59 198 -141
287 -360 396 -120 59 -149 78 -213 141 -41 40 -75 73 -76 73 -2 0 -6 -19 -9
-42z"/>
<path d="M5917 9114 c-64 -62 -97 -84 -191 -129 -186 -89 -271 -166 -332 -299
-33 -72 -79 -256 -93 -371 -13 -104 -15 -295 -3 -295 4 0 37 24 72 54 69 58
174 125 355 225 146 81 213 144 260 243 58 122 65 241 34 533 -6 55 -14 103
-18 107 -3 4 -41 -27 -84 -68z"/>
<path d="M4477 9123 c-17 -110 -29 -308 -25 -402 12 -230 93 -346 331 -474
139 -74 265 -153 342 -214 36 -29 68 -53 70 -53 3 0 5 56 5 124 0 142 -25 307
-66 436 -67 213 -140 292 -377 408 -108 53 -134 71 -200 137 l-74 75 -6 -37z"/>
<path d="M2301 8727 c-27 -71 -45 -201 -46 -327 0 -132 1 -137 32 -203 38 -80
123 -173 235 -258 90 -67 82 -71 121 61 48 160 60 296 33 373 -39 107 -160
248 -286 332 -37 25 -71 45 -74 45 -4 0 -10 -10 -15 -23z"/>
<path d="M2980 8401 c-11 -22 -49 -75 -85 -118 -141 -169 -193 -340 -166 -549
13 -94 48 -241 61 -249 4 -2 25 33 48 78 29 58 59 100 102 142 216 212 241
370 104 675 -15 33 -31 60 -35 60 -5 0 -18 -18 -29 -39z"/>
<path d="M5929 8325 c-64 -61 -100 -85 -217 -145 -205 -103 -279 -181 -337
-354 -48 -144 -66 -250 -72 -435 l-6 -175 34 28 c100 81 183 139 264 184 214
120 261 150 309 197 103 102 136 201 136 405 -1 119 -20 354 -31 364 -2 3 -38
-29 -80 -69z"/>
<path d="M4475 8360 c-3 -4 -12 -81 -21 -171 -41 -420 25 -569 324 -729 165
-88 254 -144 336 -211 59 -48 72 -54 80 -41 12 21 0 235 -19 347 -59 342 -145
468 -409 598 -118 58 -147 77 -211 141 -42 40 -77 70 -80 66z"/>
<path d="M3292 8259 c33 -81 221 -571 300 -779 482 -1278 827 -2325 967 -2935
57 -245 126 -706 153 -1018 7 -81 15 -147 19 -147 15 0 38 485 38 795 1 363
-22 586 -94 950 -158 789 -524 1696 -1063 2635 -118 205 -299 497 -314 506 -7
5 -9 2 -6 -7z"/>
<path d="M1984 8050 c9 -71 52 -215 82 -276 34 -71 112 -147 187 -183 38 -18
103 -37 158 -47 113 -19 183 -42 250 -83 27 -17 54 -31 59 -31 16 0 11 52 -8
87 -111 206 -166 286 -246 360 -84 77 -159 116 -282 149 -54 14 -123 37 -153
50 l-54 24 7 -50z"/>
<path d="M3155 7860 c-16 -32 -67 -95 -122 -152 -128 -132 -147 -174 -151
-333 -3 -92 1 -144 17 -220 23 -113 43 -177 57 -182 5 -1 26 24 48 57 21 33
86 112 145 174 114 122 145 172 163 260 15 70 -4 162 -63 311 -60 150 -61 151
-94 85z"/>
<path d="M5914 7525 c-60 -62 -87 -80 -187 -129 -239 -117 -320 -206 -381
-422 -47 -164 -79 -429 -62 -517 l7 -36 83 67 c85 68 159 114 342 216 159 87
235 166 285 291 21 55 23 75 24 230 0 160 -19 376 -34 374 -3 -1 -38 -34 -77
-74z"/>
<path d="M4475 7560 c-3 -4 -12 -81 -21 -171 -40 -416 25 -566 313 -723 183
-99 262 -148 343 -213 43 -35 82 -63 86 -63 11 0 -4 266 -21 365 -60 343 -145
468 -409 598 -118 58 -147 77 -211 141 -42 40 -77 70 -80 66z"/>
<path d="M2154 7519 c13 -81 55 -236 80 -292 32 -73 95 -141 160 -171 28 -13
120 -38 205 -55 84 -18 180 -43 214 -56 61 -25 97 -31 97 -17 0 24 -46 141
-64 162 -12 15 -44 66 -71 115 -106 188 -191 248 -398 275 -54 7 -104 22 -147
43 -36 17 -69 33 -74 35 -5 3 -6 -14 -2 -39z"/>
<path d="M3319 7309 c-20 -40 -58 -88 -108 -138 -140 -136 -167 -206 -158
-396 6 -117 21 -200 53 -297 9 -27 19 -48 23 -48 4 0 28 31 54 68 26 38 92
117 147 176 134 144 155 184 155 301 0 69 -6 106 -24 160 -27 79 -97 235 -105
235 -3 0 -20 -28 -37 -61z"/>
<path d="M2326 6983 c19 -110 66 -270 95 -323 60 -113 133 -156 335 -196 71
-14 169 -39 218 -55 60 -21 92 -27 99 -20 12 12 -17 107 -42 136 -10 11 -37
57 -61 102 -113 215 -207 287 -410 312 -83 11 -146 31 -195 61 -44 27 -47 26
-39 -17z"/>
<path d="M3495 6763 c-18 -36 -63 -91 -116 -143 -140 -138 -172 -230 -151
-434 11 -104 53 -280 71 -299 4 -4 28 23 54 60 25 38 93 119 151 181 58 63
115 134 128 160 33 69 37 179 8 274 -24 82 -99 258 -109 258 -3 0 -19 -26 -36
-57z"/>
<path d="M4466 6743 c-35 -181 -42 -472 -14 -563 25 -80 88 -172 154 -223 31
-25 114 -77 184 -116 144 -81 241 -146 317 -215 l52 -47 7 27 c12 46 -5 314
-26 418 -60 299 -141 410 -389 533 -99 48 -128 68 -195 135 -43 43 -80 78 -81
78 -2 0 -6 -12 -9 -27z"/>
<path d="M5913 6700 c-62 -59 -93 -79 -216 -139 -261 -126 -335 -227 -408
-556 -23 -100 -39 -395 -22 -395 5 0 20 12 34 26 39 42 194 141 313 201 268
135 361 231 396 411 19 95 3 523 -19 522 -3 0 -38 -32 -78 -70z"/>
<path d="M2494 6439 c13 -81 55 -236 80 -292 32 -73 95 -141 160 -171 28 -13
120 -38 205 -55 84 -18 180 -43 214 -56 33 -14 64 -25 69 -25 21 0 3 64 -45
165 -145 300 -231 370 -488 400 -31 3 -85 20 -120 38 -35 17 -68 33 -73 35 -5
3 -6 -14 -2 -39z"/>
<path d="M3665 6222 c-17 -32 -70 -99 -123 -154 -62 -65 -102 -117 -120 -155
-25 -55 -27 -66 -26 -198 1 -142 20 -259 59 -352 l16 -37 40 62 c23 35 84 109
136 165 115 123 146 167 168 236 32 96 7 226 -81 419 -18 39 -34 72 -36 72 -2
0 -16 -26 -33 -58z"/>
<path d="M2667 5888 c19 -102 65 -262 89 -312 35 -72 107 -138 178 -165 29
-11 104 -29 165 -41 126 -24 228 -53 284 -82 22 -11 40 -18 42 -16 8 8 -44
159 -64 184 -12 16 -46 70 -74 119 -29 50 -79 117 -112 151 -71 72 -130 98
-273 119 -60 9 -118 25 -160 45 -35 16 -68 30 -73 30 -5 0 -6 -15 -2 -32z"/>
<path d="M3845 5652 c-19 -37 -64 -90 -127 -152 -132 -129 -152 -172 -156
-332 -2 -65 1 -150 8 -190 13 -85 47 -208 58 -208 5 0 28 28 52 63 24 34 94
114 156 177 61 64 122 136 134 160 32 62 39 184 15 266 -21 74 -94 262 -104
268 -3 3 -20 -21 -36 -52z"/>
<path d="M1650 5677 c0 -4 78 -105 173 -224 708 -891 1225 -1599 1481 -2029
72 -121 248 -476 320 -644 25 -58 45 -96 46 -85 0 28 -81 330 -136 505 -171
544 -477 1041 -1009 1640 -165 186 -479 497 -670 664 -88 77 -170 149 -182
160 -13 11 -23 17 -23 13z"/>
<path d="M2843 5322 c9 -85 52 -242 83 -306 33 -67 96 -129 162 -157 26 -12
88 -29 137 -40 136 -29 203 -48 283 -81 40 -17 75 -29 76 -27 8 9 -48 176 -64
191 -10 10 -33 45 -50 80 -72 142 -151 232 -237 270 -25 11 -93 28 -152 39
-74 13 -127 29 -175 54 l-69 35 6 -58z"/>
<path d="M4706 2913 c-19 -159 -83 -545 -126 -763 -86 -427 -195 -841 -332
-1258 -38 -118 -67 -216 -65 -219 3 -2 25 24 50 59 194 275 347 694 421 1158
15 91 36 199 46 242 14 50 17 84 12 100 -5 12 -5 61 -1 108 14 164 23 630 12
630 -6 0 -14 -26 -17 -57z"/>
<path d="M3775 2293 c82 -469 125 -959 125 -1427 0 -110 2 -197 5 -194 11 11
46 165 60 261 17 119 21 587 5 615 -5 9 -21 84 -36 167 -28 163 -75 355 -124
508 -31 96 -44 123 -35 70z"/>
</g>
</svg>
