<?xml version="1.0" standalone="no"?>
<!DOCTYPE svg PUBLIC "-//W3C//DTD SVG 20010904//EN"
 "http://www.w3.org/TR/2001/REC-SVG-20010904/DTD/svg10.dtd">
<svg version="1.0" xmlns="http://www.w3.org/2000/svg"
 width="1280.000000pt" height="1240.000000pt" viewBox="0 0 1280.000000 1240.000000"
 preserveAspectRatio="xMidYMid meet">
<g transform="translate(0.000000,1240.000000) scale(0.100000,-0.100000)"
fill="#000000" stroke="none">
<path d="M3850 12374 c-382 -141 -987 -674 -1334 -1176 -37 -54 -72 -98 -78
-98 -6 0 -30 11 -53 25 -119 69 -314 101 -461 76 -217 -38 -410 -183 -508
-383 -87 -175 -99 -352 -37 -537 17 -51 29 -96 26 -101 -2 -4 -35 -26 -72 -48
-236 -140 -675 -532 -910 -812 -130 -154 -270 -364 -313 -467 -18 -42 -35
-102 -37 -133 -5 -53 -4 -58 22 -78 15 -12 40 -22 55 -22 82 0 274 92 451 216
355 250 754 651 981 987 32 48 63 87 69 87 6 0 48 -18 92 -40 147 -71 330 -89
484 -45 37 10 67 14 76 9 34 -19 334 -304 517 -491 481 -489 885 -991 1250
-1553 133 -204 290 -471 290 -492 0 -10 -20 -59 -45 -108 -280 -557 -309
-1218 -80 -1798 19 -49 35 -99 35 -110 0 -30 -160 -341 -269 -522 -325 -539
-814 -1166 -1423 -1825 -312 -337 -313 -339 -340 -331 -153 42 -355 28 -481
-33 -24 -12 -50 -21 -58 -21 -8 0 -29 24 -46 53 -89 148 -350 429 -611 658
-385 338 -756 560 -940 563 -49 0 -57 -3 -78 -29 -29 -37 -29 -46 -4 -113 71
-186 212 -373 487 -643 305 -299 587 -519 857 -664 47 -26 86 -53 86 -60 0 -7
-12 -39 -26 -71 -44 -99 -64 -197 -64 -308 0 -126 19 -207 72 -316 34 -69 59
-102 133 -175 73 -74 106 -99 175 -132 117 -58 194 -76 320 -76 124 0 189 13
287 59 39 19 76 34 81 34 5 0 24 -21 43 -47 154 -215 473 -538 747 -756 362
-288 730 -459 812 -377 19 19 22 30 18 74 -12 144 -179 380 -482 681 -239 237
-457 414 -739 600 -81 53 -147 101 -147 106 0 5 7 23 15 39 26 51 55 192 55
270 -1 41 -7 109 -14 150 -12 64 -12 78 0 98 43 67 561 592 779 787 533 480
1121 914 1637 1209 l116 67 109 -52 c376 -179 828 -245 1253 -183 218 32 404
88 599 180 l114 54 94 -50 c604 -323 1411 -969 2302 -1843 l213 -210 -7 -41
c-21 -124 -23 -165 -15 -235 11 -92 25 -141 56 -203 13 -26 24 -51 24 -56 0
-5 -37 -34 -82 -64 -357 -237 -858 -764 -1075 -1130 -75 -127 -113 -216 -120
-283 -5 -45 -2 -54 22 -83 33 -40 50 -40 149 -2 277 107 699 458 1044 870 110
132 235 302 280 382 15 26 32 48 37 48 6 0 46 -15 90 -34 113 -47 176 -60 285
-60 483 3 813 479 655 945 -14 40 -25 80 -25 88 0 9 28 32 63 52 149 88 371
271 591 487 344 340 613 710 671 926 19 69 15 104 -12 132 -28 27 -125 14
-215 -29 -373 -180 -944 -732 -1263 -1220 -31 -48 -59 -87 -62 -87 -3 0 -42
18 -86 40 -45 22 -109 47 -142 55 -85 22 -244 20 -330 -4 l-69 -19 -56 48
c-79 69 -458 454 -581 590 -530 585 -997 1238 -1334 1868 -68 126 -86 168 -82
190 3 15 31 99 61 187 183 529 167 1080 -46 1597 l-40 96 63 114 c322 585 881
1283 1659 2072 151 153 319 319 372 368 l97 89 163 2 c182 3 237 16 351 83 32
19 64 34 71 34 6 0 50 -48 96 -107 386 -489 1205 -1083 1493 -1083 41 0 97 26
97 46 0 6 -15 42 -34 80 -179 368 -866 1013 -1364 1280 -60 32 -73 43 -69 59
3 11 15 58 27 104 31 116 25 289 -13 404 -123 377 -525 576 -905 448 -51 -17
-97 -31 -101 -31 -5 0 -20 17 -33 38 -79 119 -278 340 -436 485 -348 320 -754
591 -996 666 -326 101 -278 -155 108 -579 253 -278 702 -638 1019 -819 32 -18
61 -39 63 -46 3 -7 -6 -36 -20 -63 -71 -140 -93 -355 -52 -509 l19 -72 -122
-128 c-494 -516 -1155 -1063 -1771 -1466 -258 -168 -594 -369 -747 -446 l-62
-31 -68 31 c-180 82 -407 151 -603 184 -134 23 -413 31 -551 16 -160 -18 -330
-55 -497 -109 l-144 -46 -171 86 c-675 341 -1585 1037 -2469 1889 l-87 84 16
70 c22 103 13 248 -21 345 -15 41 -28 83 -29 94 -1 13 20 32 76 67 323 202
796 647 1039 979 75 103 163 250 189 318 12 31 24 83 27 114 4 52 2 59 -23 82
-34 32 -60 32 -145 0z m6925 -1733 c49 -28 76 -86 72 -152 -4 -67 -31 -111
-87 -139 -50 -26 -93 -25 -147 1 -136 66 -122 252 24 305 44 16 94 10 138 -15z
m-8618 -12 c82 -40 113 -121 74 -197 -46 -90 -149 -127 -228 -83 -54 32 -76
66 -81 129 -6 70 16 114 72 147 51 31 105 32 163 4z m21 -8578 c48 -33 75 -94
70 -151 -6 -60 -36 -102 -91 -129 -119 -58 -237 12 -237 140 0 65 24 109 80
147 46 31 130 28 178 -7z m8528 0 c108 -49 131 -169 48 -260 -64 -71 -167 -76
-233 -11 -38 39 -54 89 -49 156 5 62 24 88 83 115 51 24 99 24 151 0z"/>
</g>
</svg>
